<svg xmlns="http://www.w3.org/2000/svg" version="1.1" width="275px" height="183px" style="shape-rendering:geometricPrecision; text-rendering:geometricPrecision; image-rendering:optimizeQuality; fill-rule:evenodd; clip-rule:evenodd" xmlns:xlink="http://www.w3.org/1999/xlink">
<g><path style="opacity:1" fill="#9f9f9c" d="M -0.5,-0.5 C 91.1667,-0.5 182.833,-0.5 274.5,-0.5C 274.5,19.8333 274.5,40.1667 274.5,60.5C 274.167,60.5 273.833,60.5 273.5,60.5C 273.5,40.5 273.5,20.5 273.5,0.5C 182.5,0.5 91.5,0.5 0.5,0.5C 0.5,20.5 0.5,40.5 0.5,60.5C 0.166667,60.5 -0.166667,60.5 -0.5,60.5C -0.5,40.1667 -0.5,19.8333 -0.5,-0.5 Z"/></g>
<g><path style="opacity:1" fill="#fbfefe" d="M 273.5,60.5 C 182.5,60.5 91.5,60.5 0.5,60.5C 0.5,40.5 0.5,20.5 0.5,0.5C 91.5,0.5 182.5,0.5 273.5,0.5C 273.5,20.5 273.5,40.5 273.5,60.5 Z"/></g>
<g><path style="opacity:1" fill="#769cc4" d="M -0.5,60.5 C -0.166667,60.5 0.166667,60.5 0.5,60.5C 0.5,80.5 0.5,100.5 0.5,120.5C 91.5,120.5 182.5,120.5 273.5,120.5C 273.5,100.5 273.5,80.5 273.5,60.5C 273.833,60.5 274.167,60.5 274.5,60.5C 274.5,80.8333 274.5,101.167 274.5,121.5C 274.167,121.5 273.833,121.5 273.5,121.5C 182.5,121.5 91.5,121.5 0.5,121.5C 0.166667,121.5 -0.166667,121.5 -0.5,121.5C -0.5,101.167 -0.5,80.8333 -0.5,60.5 Z"/></g>
<g><path style="opacity:1" fill="#3983bf" d="M 0.5,60.5 C 91.5,60.5 182.5,60.5 273.5,60.5C 273.5,80.5 273.5,100.5 273.5,120.5C 182.5,120.5 91.5,120.5 0.5,120.5C 0.5,100.5 0.5,80.5 0.5,60.5 Z"/></g>
<g><path style="opacity:1" fill="#999897" d="M -0.5,121.5 C -0.166667,121.5 0.166667,121.5 0.5,121.5C 0.5,141.5 0.5,161.5 0.5,181.5C 91.5,181.5 182.5,181.5 273.5,181.5C 273.5,161.5 273.5,141.5 273.5,121.5C 273.833,121.5 274.167,121.5 274.5,121.5C 274.5,141.833 274.5,162.167 274.5,182.5C 182.833,182.5 91.1667,182.5 -0.5,182.5C -0.5,162.167 -0.5,141.833 -0.5,121.5 Z"/></g>
<g><path style="opacity:1" fill="#fbfefe" d="M 0.5,121.5 C 91.5,121.5 182.5,121.5 273.5,121.5C 273.5,141.5 273.5,161.5 273.5,181.5C 182.5,181.5 91.5,181.5 0.5,181.5C 0.5,161.5 0.5,141.5 0.5,121.5 Z"/></g>
</svg>