<svg width="166" height="30" viewBox="0 0 166 30" fill="none" xmlns="http://www.w3.org/2000/svg">
<g clip-path="url(#clip0)">
<path fill-rule="evenodd" clip-rule="evenodd" d="M49.5741 28.6871H52.7267C54.464 26.4543 60.0387 19.4254 61.8894 17.2284L60.4923 28.6871H67.9087L70.5033 1.42007C67.0196 1.33523 64.8605 1.55404 64.6836 1.42007C64.5067 1.2861 54.5139 15.3171 54.4322 14.5981L52.4817 1.42007H46.8661C43.7317 7.77911 37.3722 21.7252 34.1653 28.6871H41.8765L46.9841 17.0006C47.9185 20.7294 49.0933 25.2843 49.5741 28.6871Z" fill="white"/>
<path fill-rule="evenodd" clip-rule="evenodd" d="M122.717 17.9339C123.702 18.0321 127.548 17.1435 127.444 20.0059C127.339 22.8684 125.888 23.6007 121.642 23.2479L122.717 17.9339ZM112.606 28.763C122.509 28.888 131.848 30.3527 134.638 21.2474C136.951 13.7094 130.873 12.2715 124.659 12.2581L125.675 8.15864H135.849L137.26 2.51856L119.401 2.4873L112.606 28.763Z" fill="white"/>
<path fill-rule="evenodd" clip-rule="evenodd" d="M109.463 27.486C109.726 26.45 111.014 21.3502 111.414 19.4479C109.146 21.06 107.703 22.3505 104.637 23.0873C89.1781 25.3202 101.747 -1.89776 113.541 11.9233L115.891 3.74677C115.614 3.58601 115.396 3.17071 115.315 3.30021C115.233 3.42971 114.97 3.00101 114.861 2.93403C111.137 0.701223 105.898 1.18797 101.988 2.52766C97.4518 4.08616 94.7302 7.0156 92.7933 9.85127C90.5661 13.0799 88.6564 17.7197 89.9855 22.3862C92.4848 31.2326 106.678 31.5586 109.463 27.486Z" fill="white"/>
<path fill-rule="evenodd" clip-rule="evenodd" d="M143.724 21.7609C141.977 23.8195 139.11 27.1509 137.972 28.5397C142.875 28.5843 145.434 28.6379 147.044 28.5397C146.872 28.0931 147.498 27.2848 148.636 25.7576C152.464 20.899 163.732 5.53728 166.014 2.53639C160.489 2.53639 158.91 2.50066 157.549 2.53639C155.095 6.10888 152.8 9.00706 150.092 12.8073L147.221 2.53639H138.757C139.741 6.43933 142.698 17.7954 143.724 21.7609Z" fill="white"/>
<path fill-rule="evenodd" clip-rule="evenodd" d="M37.7034 11.2042C44.6661 -0.893123 38.0708 1.2861 20.1581 1.42007C13.5037 1.42007 5.51126 2.4159 0 0C2.17275 7.7791 7.1034 8.21227 15.8488 8.70795C23.1926 9.12325 37.1953 7.44418 37.7034 11.2042Z" fill="white"/>
<path fill-rule="evenodd" clip-rule="evenodd" d="M73.225 8.13191H78.6682C77.5342 12.4859 74.0687 24.8601 73.0798 28.5487L81.0541 28.8077L86.4112 8.13191H91.174C92.3806 6.48857 94.7302 3.7824 96.7669 2.53203L73.4835 2.48291L73.225 8.13191Z" fill="white"/>
<path fill-rule="evenodd" clip-rule="evenodd" d="M33.0858 20.9884C36.7146 16.4602 36.9187 13.5397 34.2923 12.5037C28.4817 11.3069 9.18549 13.8434 5.3208 10.4227C6.19172 14.8348 10.3875 18.5725 15.799 18.9699C21.5098 19.3986 31.1852 17.6347 33.0858 20.9884Z" fill="#E41113"/>
<path fill-rule="evenodd" clip-rule="evenodd" d="M30.0149 28.6023C31.3394 24.8333 31.04 23.1006 29.5612 22.4487C26.4632 21.109 18.5387 23.958 10.7141 20.8276C14.851 29.2677 21.7729 28.9819 30.0149 28.6023Z" fill="white"/>
</g>
<defs>
<clipPath id="clip0">
<rect width="166" height="30" fill="white"/>
</clipPath>
</defs>
</svg>
